<mxfile host="Electron" modified="2024-12-28T04:33:48.097Z" agent="Mozilla/5.0 (Windows NT 10.0; Win64; x64) AppleWebKit/537.36 (KHTML, like Gecko) draw.io/24.6.4 Chrome/124.0.6367.207 Electron/30.0.6 Safari/537.36" etag="OGKrbRY7lUP6DCesSvlt" version="24.6.4" type="device" pages="3">
  <diagram name="WordCount逻辑DAG" id="aVRumw0ZJCtyuf9LgTfQ">
    <mxGraphModel dx="1434" dy="844" grid="1" gridSize="10" guides="1" tooltips="1" connect="1" arrows="1" fold="1" page="1" pageScale="1" pageWidth="827" pageHeight="1169" math="0" shadow="0">
      <root>
        <mxCell id="0" />
        <mxCell id="1" parent="0" />
        <mxCell id="SwacTGYDfWWPdm--fIbU-5" value="" style="rounded=0;whiteSpace=wrap;html=1;fillColor=#fff2cc;strokeColor=#d6b656;" vertex="1" parent="1">
          <mxGeometry x="70" y="698" width="750" height="120" as="geometry" />
        </mxCell>
        <mxCell id="SwacTGYDfWWPdm--fIbU-18" value="" style="rounded=0;whiteSpace=wrap;html=1;fillColor=#e1d5e7;strokeColor=#9673a6;dashed=1;opacity=70;" vertex="1" parent="1">
          <mxGeometry x="119" y="690" width="141" height="170" as="geometry" />
        </mxCell>
        <mxCell id="SwacTGYDfWWPdm--fIbU-19" value="" style="rounded=0;whiteSpace=wrap;html=1;fillColor=#e1d5e7;strokeColor=#9673a6;dashed=1;opacity=70;" vertex="1" parent="1">
          <mxGeometry x="277.5" y="690" width="141" height="170" as="geometry" />
        </mxCell>
        <mxCell id="SwacTGYDfWWPdm--fIbU-20" value="" style="rounded=0;whiteSpace=wrap;html=1;fillColor=#e1d5e7;strokeColor=#9673a6;dashed=1;opacity=70;" vertex="1" parent="1">
          <mxGeometry x="439" y="690" width="141" height="170" as="geometry" />
        </mxCell>
        <mxCell id="SwacTGYDfWWPdm--fIbU-4" value="" style="rounded=0;whiteSpace=wrap;html=1;fillColor=#fff2cc;strokeColor=#d6b656;" vertex="1" parent="1">
          <mxGeometry x="69" y="541" width="751" height="120" as="geometry" />
        </mxCell>
        <mxCell id="SwacTGYDfWWPdm--fIbU-3" value="" style="rounded=0;whiteSpace=wrap;html=1;fillColor=#fff2cc;strokeColor=#d6b656;" vertex="1" parent="1">
          <mxGeometry x="69" y="380" width="751" height="120" as="geometry" />
        </mxCell>
        <mxCell id="SwacTGYDfWWPdm--fIbU-1" value="" style="rounded=0;whiteSpace=wrap;html=1;fillColor=#fff2cc;strokeColor=#d6b656;" vertex="1" parent="1">
          <mxGeometry x="70" y="220" width="750" height="120" as="geometry" />
        </mxCell>
        <mxCell id="SwacTGYDfWWPdm--fIbU-12" value="" style="rounded=0;whiteSpace=wrap;html=1;fillColor=#e1d5e7;strokeColor=#9673a6;glass=0;shadow=0;dashed=1;opacity=70;" vertex="1" parent="1">
          <mxGeometry x="439" y="180" width="141" height="490" as="geometry" />
        </mxCell>
        <mxCell id="SwacTGYDfWWPdm--fIbU-11" value="" style="rounded=0;whiteSpace=wrap;html=1;fillColor=#e1d5e7;strokeColor=#9673a6;glass=0;shadow=0;dashed=1;opacity=70;" vertex="1" parent="1">
          <mxGeometry x="277.5" y="180" width="141" height="490" as="geometry" />
        </mxCell>
        <mxCell id="SwacTGYDfWWPdm--fIbU-10" value="" style="rounded=0;whiteSpace=wrap;html=1;fillColor=#e1d5e7;strokeColor=#9673a6;glass=0;shadow=0;dashed=1;opacity=70;" vertex="1" parent="1">
          <mxGeometry x="119" y="180" width="141" height="490" as="geometry" />
        </mxCell>
        <mxCell id="nj91gokxBcbTwrOt-Kzk-27" style="rounded=0;orthogonalLoop=1;jettySize=auto;html=1;exitX=0.5;exitY=1;exitDx=0;exitDy=0;entryX=0.5;entryY=0;entryDx=0;entryDy=0;" parent="1" source="nj91gokxBcbTwrOt-Kzk-1" target="nj91gokxBcbTwrOt-Kzk-2" edge="1">
          <mxGeometry relative="1" as="geometry" />
        </mxCell>
        <mxCell id="nj91gokxBcbTwrOt-Kzk-28" style="rounded=0;orthogonalLoop=1;jettySize=auto;html=1;exitX=0.5;exitY=1;exitDx=0;exitDy=0;" parent="1" source="nj91gokxBcbTwrOt-Kzk-1" target="nj91gokxBcbTwrOt-Kzk-3" edge="1">
          <mxGeometry relative="1" as="geometry" />
        </mxCell>
        <mxCell id="nj91gokxBcbTwrOt-Kzk-29" style="rounded=0;orthogonalLoop=1;jettySize=auto;html=1;exitX=0.5;exitY=1;exitDx=0;exitDy=0;entryX=0.5;entryY=0;entryDx=0;entryDy=0;" parent="1" source="nj91gokxBcbTwrOt-Kzk-1" target="nj91gokxBcbTwrOt-Kzk-4" edge="1">
          <mxGeometry relative="1" as="geometry" />
        </mxCell>
        <mxCell id="nj91gokxBcbTwrOt-Kzk-1" value="&lt;div style=&quot;font-size: 13px;&quot;&gt;hello hadoop&lt;/div&gt;&lt;div style=&quot;font-size: 13px;&quot;&gt;hello hdfs&lt;/div&gt;&lt;div style=&quot;font-size: 13px;&quot;&gt;hello yarn&lt;/div&gt;&lt;div style=&quot;font-size: 13px;&quot;&gt;hello mapreduce&lt;/div&gt;&lt;div style=&quot;font-size: 13px;&quot;&gt;hello spark&lt;/div&gt;&lt;div style=&quot;font-size: 13px;&quot;&gt;hello pyspark&lt;/div&gt;" style="rounded=0;whiteSpace=wrap;html=1;align=left;fontSize=13;fontFamily=Times New Roman;fillColor=#dae8fc;strokeColor=#6c8ebf;" parent="1" vertex="1">
          <mxGeometry x="288" y="20" width="120" height="120" as="geometry" />
        </mxCell>
        <mxCell id="nj91gokxBcbTwrOt-Kzk-30" style="edgeStyle=orthogonalEdgeStyle;rounded=0;orthogonalLoop=1;jettySize=auto;html=1;exitX=0.5;exitY=1;exitDx=0;exitDy=0;" parent="1" source="nj91gokxBcbTwrOt-Kzk-2" target="nj91gokxBcbTwrOt-Kzk-9" edge="1">
          <mxGeometry relative="1" as="geometry" />
        </mxCell>
        <mxCell id="nj91gokxBcbTwrOt-Kzk-2" value="&lt;div style=&quot;font-size: 13px;&quot;&gt;&quot;hello hadoop&lt;span style=&quot;background-color: initial; font-size: 13px;&quot;&gt;&quot;,&lt;/span&gt;&lt;/div&gt;&lt;div style=&quot;font-size: 13px;&quot;&gt;&lt;span style=&quot;background-color: initial; font-size: 13px;&quot;&gt;&quot;&lt;/span&gt;hello hdfs&lt;span style=&quot;background-color: initial; font-size: 13px;&quot;&gt;&quot;,&lt;/span&gt;&lt;/div&gt;" style="rounded=1;whiteSpace=wrap;html=1;align=left;fontSize=13;fontFamily=Times New Roman;fillColor=#d5e8d4;strokeColor=#82b366;" parent="1" vertex="1">
          <mxGeometry x="128" y="240" width="120" height="80" as="geometry" />
        </mxCell>
        <mxCell id="nj91gokxBcbTwrOt-Kzk-31" style="edgeStyle=orthogonalEdgeStyle;rounded=0;orthogonalLoop=1;jettySize=auto;html=1;exitX=0.5;exitY=1;exitDx=0;exitDy=0;" parent="1" source="nj91gokxBcbTwrOt-Kzk-3" target="nj91gokxBcbTwrOt-Kzk-10" edge="1">
          <mxGeometry relative="1" as="geometry" />
        </mxCell>
        <mxCell id="nj91gokxBcbTwrOt-Kzk-3" value="&lt;div style=&quot;font-size: 13px;&quot;&gt;&lt;span style=&quot;background-color: initial; font-size: 13px;&quot;&gt;&quot;&lt;/span&gt;&lt;span style=&quot;background-color: initial; font-size: 13px;&quot;&gt;hello yarn&lt;/span&gt;&lt;span style=&quot;background-color: initial; font-size: 13px;&quot;&gt;&quot;,&lt;/span&gt;&lt;br style=&quot;font-size: 13px;&quot;&gt;&lt;/div&gt;&lt;div style=&quot;font-size: 13px;&quot;&gt;&lt;span style=&quot;background-color: initial; font-size: 13px;&quot;&gt;&quot;&lt;/span&gt;hello mapreduce&lt;span style=&quot;background-color: initial; font-size: 13px;&quot;&gt;&quot;,&lt;/span&gt;&lt;/div&gt;" style="rounded=1;whiteSpace=wrap;html=1;align=left;fontSize=13;fontFamily=Times New Roman;fillColor=#d5e8d4;strokeColor=#82b366;" parent="1" vertex="1">
          <mxGeometry x="288" y="240" width="120" height="80" as="geometry" />
        </mxCell>
        <mxCell id="nj91gokxBcbTwrOt-Kzk-32" style="edgeStyle=orthogonalEdgeStyle;rounded=0;orthogonalLoop=1;jettySize=auto;html=1;exitX=0.5;exitY=1;exitDx=0;exitDy=0;entryX=0.5;entryY=0;entryDx=0;entryDy=0;" parent="1" source="nj91gokxBcbTwrOt-Kzk-4" target="nj91gokxBcbTwrOt-Kzk-11" edge="1">
          <mxGeometry relative="1" as="geometry" />
        </mxCell>
        <mxCell id="nj91gokxBcbTwrOt-Kzk-4" value="&lt;div style=&quot;font-size: 13px;&quot;&gt;&lt;span style=&quot;background-color: initial; font-size: 13px;&quot;&gt;&quot;&lt;/span&gt;&lt;span style=&quot;background-color: initial; font-size: 13px;&quot;&gt;hello spark&lt;/span&gt;&lt;span style=&quot;background-color: initial; font-size: 13px;&quot;&gt;&quot;,&lt;/span&gt;&lt;br style=&quot;font-size: 13px;&quot;&gt;&lt;/div&gt;&lt;div style=&quot;font-size: 13px;&quot;&gt;&lt;span style=&quot;background-color: initial; font-size: 13px;&quot;&gt;&quot;&lt;/span&gt;hello pyspark&lt;span style=&quot;background-color: initial; font-size: 13px;&quot;&gt;&quot;,&lt;/span&gt;&lt;/div&gt;" style="rounded=1;whiteSpace=wrap;html=1;align=left;fontSize=13;fontFamily=Times New Roman;fillColor=#d5e8d4;strokeColor=#82b366;" parent="1" vertex="1">
          <mxGeometry x="448" y="240" width="120" height="80" as="geometry" />
        </mxCell>
        <mxCell id="nj91gokxBcbTwrOt-Kzk-87" style="edgeStyle=orthogonalEdgeStyle;rounded=0;orthogonalLoop=1;jettySize=auto;html=1;exitX=0.5;exitY=1;exitDx=0;exitDy=0;" parent="1" source="nj91gokxBcbTwrOt-Kzk-9" target="nj91gokxBcbTwrOt-Kzk-24" edge="1">
          <mxGeometry relative="1" as="geometry" />
        </mxCell>
        <mxCell id="nj91gokxBcbTwrOt-Kzk-9" value="&lt;div style=&quot;font-size: 13px;&quot;&gt;&quot;hello&quot;,&lt;/div&gt;&lt;div style=&quot;font-size: 13px;&quot;&gt;&quot;hadoop&lt;span style=&quot;background-color: initial; font-size: 13px;&quot;&gt;&quot;,&lt;/span&gt;&lt;/div&gt;&lt;div style=&quot;font-size: 13px;&quot;&gt;&lt;span style=&quot;background-color: initial; font-size: 13px;&quot;&gt;&quot;&lt;/span&gt;hello&quot;,&amp;nbsp;&lt;/div&gt;&lt;div style=&quot;font-size: 13px;&quot;&gt;&quot;hdfs&lt;span style=&quot;background-color: initial; font-size: 13px;&quot;&gt;&quot;,&lt;/span&gt;&lt;/div&gt;" style="rounded=1;whiteSpace=wrap;html=1;align=left;fontSize=13;fontFamily=Times New Roman;fillColor=#d5e8d4;strokeColor=#82b366;" parent="1" vertex="1">
          <mxGeometry x="128" y="400" width="120" height="80" as="geometry" />
        </mxCell>
        <mxCell id="nj91gokxBcbTwrOt-Kzk-88" style="edgeStyle=orthogonalEdgeStyle;rounded=0;orthogonalLoop=1;jettySize=auto;html=1;exitX=0.5;exitY=1;exitDx=0;exitDy=0;" parent="1" source="nj91gokxBcbTwrOt-Kzk-10" target="nj91gokxBcbTwrOt-Kzk-25" edge="1">
          <mxGeometry relative="1" as="geometry" />
        </mxCell>
        <mxCell id="nj91gokxBcbTwrOt-Kzk-10" value="&lt;div style=&quot;font-size: 13px;&quot;&gt;&lt;span style=&quot;background-color: initial; font-size: 13px;&quot;&gt;&quot;&lt;/span&gt;&lt;span style=&quot;background-color: initial; font-size: 13px;&quot;&gt;hello&quot;,&amp;nbsp;&lt;/span&gt;&lt;/div&gt;&lt;div style=&quot;font-size: 13px;&quot;&gt;&lt;span style=&quot;background-color: initial; font-size: 13px;&quot;&gt;&quot;yarn&lt;/span&gt;&lt;span style=&quot;background-color: initial; font-size: 13px;&quot;&gt;&quot;,&lt;/span&gt;&lt;br style=&quot;font-size: 13px;&quot;&gt;&lt;/div&gt;&lt;div style=&quot;font-size: 13px;&quot;&gt;&lt;span style=&quot;background-color: initial; font-size: 13px;&quot;&gt;&quot;&lt;/span&gt;hello&quot;,&lt;/div&gt;&lt;div style=&quot;font-size: 13px;&quot;&gt;&quot;mapreduce&lt;span style=&quot;background-color: initial; font-size: 13px;&quot;&gt;&quot;,&lt;/span&gt;&lt;/div&gt;" style="rounded=1;whiteSpace=wrap;html=1;align=left;fontSize=13;fontFamily=Times New Roman;fillColor=#d5e8d4;strokeColor=#82b366;" parent="1" vertex="1">
          <mxGeometry x="288" y="400" width="120" height="80" as="geometry" />
        </mxCell>
        <mxCell id="nj91gokxBcbTwrOt-Kzk-89" style="edgeStyle=orthogonalEdgeStyle;rounded=0;orthogonalLoop=1;jettySize=auto;html=1;exitX=0.5;exitY=1;exitDx=0;exitDy=0;" parent="1" source="nj91gokxBcbTwrOt-Kzk-11" target="nj91gokxBcbTwrOt-Kzk-26" edge="1">
          <mxGeometry relative="1" as="geometry" />
        </mxCell>
        <mxCell id="nj91gokxBcbTwrOt-Kzk-11" value="&lt;div style=&quot;font-size: 13px;&quot;&gt;&lt;span style=&quot;background-color: initial; font-size: 13px;&quot;&gt;&quot;&lt;/span&gt;&lt;span style=&quot;background-color: initial; font-size: 13px;&quot;&gt;hello&quot;,&amp;nbsp;&lt;/span&gt;&lt;/div&gt;&lt;div style=&quot;font-size: 13px;&quot;&gt;&lt;span style=&quot;background-color: initial; font-size: 13px;&quot;&gt;&quot;spark&lt;/span&gt;&lt;span style=&quot;background-color: initial; font-size: 13px;&quot;&gt;&quot;,&lt;/span&gt;&lt;br style=&quot;font-size: 13px;&quot;&gt;&lt;/div&gt;&lt;div style=&quot;font-size: 13px;&quot;&gt;&lt;span style=&quot;background-color: initial; font-size: 13px;&quot;&gt;&quot;&lt;/span&gt;hello&quot;,&amp;nbsp;&lt;/div&gt;&lt;div style=&quot;font-size: 13px;&quot;&gt;&quot;pyspark&lt;span style=&quot;background-color: initial; font-size: 13px;&quot;&gt;&quot;,&lt;/span&gt;&lt;/div&gt;" style="rounded=1;whiteSpace=wrap;html=1;align=left;fontSize=13;fontFamily=Times New Roman;fillColor=#d5e8d4;strokeColor=#82b366;" parent="1" vertex="1">
          <mxGeometry x="448" y="400" width="120" height="80" as="geometry" />
        </mxCell>
        <mxCell id="nj91gokxBcbTwrOt-Kzk-57" style="rounded=0;orthogonalLoop=1;jettySize=auto;html=1;exitX=0.5;exitY=1;exitDx=0;exitDy=0;entryX=0.5;entryY=0;entryDx=0;entryDy=0;" parent="1" source="nj91gokxBcbTwrOt-Kzk-24" target="nj91gokxBcbTwrOt-Kzk-45" edge="1">
          <mxGeometry relative="1" as="geometry" />
        </mxCell>
        <mxCell id="nj91gokxBcbTwrOt-Kzk-58" style="rounded=0;orthogonalLoop=1;jettySize=auto;html=1;exitX=0.5;exitY=1;exitDx=0;exitDy=0;entryX=0.5;entryY=0;entryDx=0;entryDy=0;" parent="1" source="nj91gokxBcbTwrOt-Kzk-24" target="nj91gokxBcbTwrOt-Kzk-46" edge="1">
          <mxGeometry relative="1" as="geometry" />
        </mxCell>
        <mxCell id="nj91gokxBcbTwrOt-Kzk-65" style="rounded=0;orthogonalLoop=1;jettySize=auto;html=1;exitX=0.5;exitY=1;exitDx=0;exitDy=0;" parent="1" source="nj91gokxBcbTwrOt-Kzk-24" target="nj91gokxBcbTwrOt-Kzk-44" edge="1">
          <mxGeometry relative="1" as="geometry" />
        </mxCell>
        <mxCell id="nj91gokxBcbTwrOt-Kzk-24" value="&lt;div style=&quot;font-size: 13px;&quot;&gt;(&quot;hello&quot;, 1),&lt;/div&gt;&lt;div style=&quot;font-size: 13px;&quot;&gt;(&quot;hadoop&lt;span style=&quot;background-color: initial; font-size: 13px;&quot;&gt;&quot;, 1),&lt;/span&gt;&lt;/div&gt;&lt;div style=&quot;font-size: 13px;&quot;&gt;&lt;span style=&quot;background-color: initial; font-size: 13px;&quot;&gt;(&quot;&lt;/span&gt;hello&quot;, 1),&amp;nbsp;&lt;/div&gt;&lt;div style=&quot;font-size: 13px;&quot;&gt;(&quot;hdfs&lt;span style=&quot;background-color: initial; font-size: 13px;&quot;&gt;&quot;, 1),&lt;/span&gt;&lt;/div&gt;" style="rounded=1;whiteSpace=wrap;html=1;align=left;fontSize=13;fontFamily=Times New Roman;fillColor=#d5e8d4;strokeColor=#82b366;" parent="1" vertex="1">
          <mxGeometry x="128" y="560" width="120" height="80" as="geometry" />
        </mxCell>
        <mxCell id="nj91gokxBcbTwrOt-Kzk-59" style="rounded=0;orthogonalLoop=1;jettySize=auto;html=1;exitX=0.5;exitY=1;exitDx=0;exitDy=0;entryX=0.5;entryY=0;entryDx=0;entryDy=0;" parent="1" source="nj91gokxBcbTwrOt-Kzk-25" target="nj91gokxBcbTwrOt-Kzk-45" edge="1">
          <mxGeometry relative="1" as="geometry" />
        </mxCell>
        <mxCell id="nj91gokxBcbTwrOt-Kzk-60" style="rounded=0;orthogonalLoop=1;jettySize=auto;html=1;exitX=0.5;exitY=1;exitDx=0;exitDy=0;entryX=0.5;entryY=0;entryDx=0;entryDy=0;" parent="1" source="nj91gokxBcbTwrOt-Kzk-25" target="nj91gokxBcbTwrOt-Kzk-44" edge="1">
          <mxGeometry relative="1" as="geometry" />
        </mxCell>
        <mxCell id="nj91gokxBcbTwrOt-Kzk-61" style="rounded=0;orthogonalLoop=1;jettySize=auto;html=1;exitX=0.5;exitY=1;exitDx=0;exitDy=0;entryX=0.5;entryY=0;entryDx=0;entryDy=0;" parent="1" source="nj91gokxBcbTwrOt-Kzk-25" target="nj91gokxBcbTwrOt-Kzk-46" edge="1">
          <mxGeometry relative="1" as="geometry" />
        </mxCell>
        <mxCell id="nj91gokxBcbTwrOt-Kzk-25" value="&lt;div style=&quot;font-size: 13px;&quot;&gt;&lt;span style=&quot;background-color: initial; font-size: 13px;&quot;&gt;(&quot;&lt;/span&gt;&lt;span style=&quot;background-color: initial; font-size: 13px;&quot;&gt;hello&quot;, 1),&lt;/span&gt;&lt;/div&gt;&lt;div style=&quot;font-size: 13px;&quot;&gt;&lt;span style=&quot;background-color: initial; font-size: 13px;&quot;&gt;(&quot;yarn&lt;/span&gt;&lt;span style=&quot;background-color: initial; font-size: 13px;&quot;&gt;&quot;, 1),&lt;/span&gt;&lt;br style=&quot;font-size: 13px;&quot;&gt;&lt;/div&gt;&lt;div style=&quot;font-size: 13px;&quot;&gt;&lt;span style=&quot;background-color: initial; font-size: 13px;&quot;&gt;(&quot;&lt;/span&gt;hello&quot;, 1),&lt;/div&gt;&lt;div style=&quot;font-size: 13px;&quot;&gt;(&quot;mapreduce&lt;span style=&quot;background-color: initial; font-size: 13px;&quot;&gt;&quot;, 1),&lt;/span&gt;&lt;/div&gt;" style="rounded=1;whiteSpace=wrap;html=1;align=left;fontSize=13;fontFamily=Times New Roman;fillColor=#d5e8d4;strokeColor=#82b366;" parent="1" vertex="1">
          <mxGeometry x="288" y="560" width="120" height="80" as="geometry" />
        </mxCell>
        <mxCell id="nj91gokxBcbTwrOt-Kzk-62" style="rounded=0;orthogonalLoop=1;jettySize=auto;html=1;exitX=0.5;exitY=1;exitDx=0;exitDy=0;entryX=0.5;entryY=0;entryDx=0;entryDy=0;" parent="1" source="nj91gokxBcbTwrOt-Kzk-26" target="nj91gokxBcbTwrOt-Kzk-46" edge="1">
          <mxGeometry relative="1" as="geometry" />
        </mxCell>
        <mxCell id="nj91gokxBcbTwrOt-Kzk-63" style="rounded=0;orthogonalLoop=1;jettySize=auto;html=1;exitX=0.5;exitY=1;exitDx=0;exitDy=0;entryX=0.5;entryY=0;entryDx=0;entryDy=0;" parent="1" source="nj91gokxBcbTwrOt-Kzk-26" target="nj91gokxBcbTwrOt-Kzk-45" edge="1">
          <mxGeometry relative="1" as="geometry" />
        </mxCell>
        <mxCell id="nj91gokxBcbTwrOt-Kzk-64" style="rounded=0;orthogonalLoop=1;jettySize=auto;html=1;exitX=0.5;exitY=1;exitDx=0;exitDy=0;entryX=0.5;entryY=0;entryDx=0;entryDy=0;" parent="1" source="nj91gokxBcbTwrOt-Kzk-26" target="nj91gokxBcbTwrOt-Kzk-44" edge="1">
          <mxGeometry relative="1" as="geometry" />
        </mxCell>
        <mxCell id="nj91gokxBcbTwrOt-Kzk-26" value="&lt;div style=&quot;font-size: 13px;&quot;&gt;&lt;span style=&quot;background-color: initial; font-size: 13px;&quot;&gt;(&quot;&lt;/span&gt;&lt;span style=&quot;background-color: initial; font-size: 13px;&quot;&gt;hello&quot;, 1),&lt;/span&gt;&lt;/div&gt;&lt;div style=&quot;font-size: 13px;&quot;&gt;&lt;span style=&quot;background-color: initial; font-size: 13px;&quot;&gt;(&quot;spark&lt;/span&gt;&lt;span style=&quot;background-color: initial; font-size: 13px;&quot;&gt;&quot;, 1),&lt;/span&gt;&lt;br style=&quot;font-size: 13px;&quot;&gt;&lt;/div&gt;&lt;div style=&quot;font-size: 13px;&quot;&gt;&lt;span style=&quot;background-color: initial; font-size: 13px;&quot;&gt;(&quot;&lt;/span&gt;hello&quot;, 1),&amp;nbsp;&lt;/div&gt;&lt;div style=&quot;font-size: 13px;&quot;&gt;(&quot;pyspark&lt;span style=&quot;background-color: initial; font-size: 13px;&quot;&gt;&quot;, 1),&lt;/span&gt;&lt;/div&gt;" style="rounded=1;whiteSpace=wrap;html=1;align=left;fontSize=13;fontFamily=Times New Roman;fillColor=#d5e8d4;strokeColor=#82b366;" parent="1" vertex="1">
          <mxGeometry x="448" y="560" width="120" height="80" as="geometry" />
        </mxCell>
        <mxCell id="nj91gokxBcbTwrOt-Kzk-43" value="" style="endArrow=none;dashed=1;html=1;strokeWidth=2;rounded=0;fillColor=#f8cecc;strokeColor=#FF0000;" parent="1" edge="1">
          <mxGeometry width="50" height="50" relative="1" as="geometry">
            <mxPoint x="10" y="681" as="sourcePoint" />
            <mxPoint x="820" y="681" as="targetPoint" />
          </mxGeometry>
        </mxCell>
        <mxCell id="nj91gokxBcbTwrOt-Kzk-69" style="rounded=0;orthogonalLoop=1;jettySize=auto;html=1;exitX=0.5;exitY=1;exitDx=0;exitDy=0;entryX=0.5;entryY=0;entryDx=0;entryDy=0;" parent="1" source="nj91gokxBcbTwrOt-Kzk-44" target="nj91gokxBcbTwrOt-Kzk-47" edge="1">
          <mxGeometry relative="1" as="geometry" />
        </mxCell>
        <mxCell id="nj91gokxBcbTwrOt-Kzk-44" value="&lt;div style=&quot;font-size: 13px;&quot;&gt;(&quot;mapreduce&lt;span style=&quot;background-color: initial; font-size: 13px;&quot;&gt;&quot;, 1),&lt;/span&gt;&lt;br style=&quot;font-size: 13px;&quot;&gt;&lt;/div&gt;" style="rounded=1;whiteSpace=wrap;html=1;align=left;fontSize=13;fontFamily=Times New Roman;fillColor=#f8cecc;strokeColor=#b85450;" parent="1" vertex="1">
          <mxGeometry x="128" y="721" width="120" height="80" as="geometry" />
        </mxCell>
        <mxCell id="nj91gokxBcbTwrOt-Kzk-70" style="rounded=0;orthogonalLoop=1;jettySize=auto;html=1;exitX=0.5;exitY=1;exitDx=0;exitDy=0;" parent="1" source="nj91gokxBcbTwrOt-Kzk-45" target="nj91gokxBcbTwrOt-Kzk-47" edge="1">
          <mxGeometry relative="1" as="geometry" />
        </mxCell>
        <mxCell id="nj91gokxBcbTwrOt-Kzk-45" value="&lt;div style=&quot;font-size: 13px;&quot;&gt;(&quot;hello&quot;, 6),&lt;br style=&quot;font-size: 13px;&quot;&gt;&lt;/div&gt;&lt;div style=&quot;font-size: 13px;&quot;&gt;(&quot;hdfs&lt;span style=&quot;background-color: initial; font-size: 13px;&quot;&gt;&quot;, 1),&lt;/span&gt;&lt;br style=&quot;font-size: 13px;&quot;&gt;&lt;/div&gt;&lt;div style=&quot;font-size: 13px;&quot;&gt;(&quot;pyspark&lt;span style=&quot;background-color: initial; font-size: 13px;&quot;&gt;&quot;, 1),&lt;/span&gt;&lt;span style=&quot;background-color: initial; font-size: 13px;&quot;&gt;&lt;br style=&quot;font-size: 13px;&quot;&gt;&lt;/span&gt;&lt;/div&gt;" style="rounded=1;whiteSpace=wrap;html=1;align=left;fontSize=13;fontFamily=Times New Roman;fillColor=#f8cecc;strokeColor=#b85450;" parent="1" vertex="1">
          <mxGeometry x="288" y="721" width="120" height="80" as="geometry" />
        </mxCell>
        <mxCell id="nj91gokxBcbTwrOt-Kzk-71" style="rounded=0;orthogonalLoop=1;jettySize=auto;html=1;exitX=0.5;exitY=1;exitDx=0;exitDy=0;entryX=0.5;entryY=0;entryDx=0;entryDy=0;" parent="1" source="nj91gokxBcbTwrOt-Kzk-46" target="nj91gokxBcbTwrOt-Kzk-47" edge="1">
          <mxGeometry relative="1" as="geometry" />
        </mxCell>
        <mxCell id="nj91gokxBcbTwrOt-Kzk-46" value="&lt;div style=&quot;font-size: 13px;&quot;&gt;(&quot;hadoop&lt;span style=&quot;background-color: initial; font-size: 13px;&quot;&gt;&quot;, 1),&lt;/span&gt;&lt;br style=&quot;font-size: 13px;&quot;&gt;&lt;/div&gt;&lt;div style=&quot;font-size: 13px;&quot;&gt;&lt;span style=&quot;background-color: initial; font-size: 13px;&quot;&gt;(&quot;yarn&lt;/span&gt;&lt;span style=&quot;background-color: initial; font-size: 13px;&quot;&gt;&quot;, 1),&lt;/span&gt;&lt;span style=&quot;background-color: initial; font-size: 13px;&quot;&gt;&lt;br style=&quot;font-size: 13px;&quot;&gt;&lt;/span&gt;&lt;/div&gt;&lt;div style=&quot;font-size: 13px;&quot;&gt;&lt;span style=&quot;background-color: initial; font-size: 13px;&quot;&gt;(&quot;spark&lt;/span&gt;&lt;span style=&quot;background-color: initial; font-size: 13px;&quot;&gt;&quot;, 1),&lt;/span&gt;&lt;span style=&quot;background-color: initial; font-size: 13px;&quot;&gt;&lt;br style=&quot;font-size: 13px;&quot;&gt;&lt;/span&gt;&lt;/div&gt;" style="rounded=1;whiteSpace=wrap;html=1;align=left;fontSize=13;fontFamily=Times New Roman;fillColor=#f8cecc;strokeColor=#b85450;" parent="1" vertex="1">
          <mxGeometry x="448" y="721" width="120" height="80" as="geometry" />
        </mxCell>
        <mxCell id="nj91gokxBcbTwrOt-Kzk-47" value="{&quot;mapreduce&quot;: 1, &quot;hello&quot;: 6, &quot;hdfs&quot;: 1,&amp;nbsp;&lt;div&gt;&quot;pyspark&quot;: 1, &quot;hadoop&quot;: 1, &quot;yarn&quot;: 1, &quot;spark&quot;: 1}&lt;/div&gt;" style="rounded=0;whiteSpace=wrap;html=1;fontSize=13;fontFamily=Times New Roman;fillColor=#dae8fc;strokeColor=#6c8ebf;" parent="1" vertex="1">
          <mxGeometry x="128" y="880" width="440" height="79" as="geometry" />
        </mxCell>
        <UserObject label="&lt;div style=&quot;color: rgb(204, 204, 204); background-color: rgb(31, 31, 31); font-family: Consolas, &amp;quot;Courier New&amp;quot;, monospace; font-weight: normal; line-height: 19px; white-space: pre; font-size: 13px;&quot;&gt;&lt;div&gt;&lt;span style=&quot;color: #6a9955;&quot;&gt; # 创建 RDD 对象             &lt;/span&gt;&lt;/div&gt;&lt;div&gt;&lt;span style=&quot;color: #9cdcfe;&quot;&gt; rdd&lt;/span&gt;&lt;span style=&quot;color: #cccccc;&quot;&gt; &lt;/span&gt;&lt;span style=&quot;color: #d4d4d4;&quot;&gt;=&lt;/span&gt;&lt;span style=&quot;color: #cccccc;&quot;&gt; &lt;/span&gt;&lt;span style=&quot;color: #9cdcfe;&quot;&gt;sc&lt;/span&gt;&lt;span style=&quot;color: #cccccc;&quot;&gt;.&lt;/span&gt;&lt;span style=&quot;color: #dcdcaa;&quot;&gt;textFile&lt;/span&gt;&lt;span style=&quot;color: #cccccc;&quot;&gt;(&lt;/span&gt;&lt;/div&gt;&lt;div&gt;&lt;span style=&quot;color: #ce9178;&quot;&gt;     &quot;wc_test.txt&quot;&lt;/span&gt;&lt;/div&gt;&lt;div&gt;&lt;span style=&quot;color: #cccccc;&quot;&gt; )&lt;/span&gt;&lt;/div&gt;&lt;/div&gt;" link="&lt;div style=&quot;color: #cccccc;background-color: #1f1f1f;font-family: Consolas, &#39;Courier New&#39;, monospace;font-weight: normal;font-size: 14px;line-height: 19px;white-space: pre;&quot;&gt;&lt;div&gt;&lt;span style=&quot;color: #6a9955;&quot;&gt;# 读取文件数据, 创建 RDD 对象&lt;/span&gt;&lt;/div&gt;&lt;div&gt;&lt;span style=&quot;color: #9cdcfe;&quot;&gt;rdd&lt;/span&gt;&lt;span style=&quot;color: #cccccc;&quot;&gt; &lt;/span&gt;&lt;span style=&quot;color: #d4d4d4;&quot;&gt;=&lt;/span&gt;&lt;span style=&quot;color: #cccccc;&quot;&gt; &lt;/span&gt;&lt;span style=&quot;color: #9cdcfe;&quot;&gt;sc&lt;/span&gt;&lt;span style=&quot;color: #cccccc;&quot;&gt;.&lt;/span&gt;&lt;span style=&quot;color: #dcdcaa;&quot;&gt;textFile&lt;/span&gt;&lt;span style=&quot;color: #cccccc;&quot;&gt;(&lt;/span&gt;&lt;span style=&quot;color: #ce9178;&quot;&gt;&quot;./inputs/wc_test.txt&quot;&lt;/span&gt;&lt;span style=&quot;color: #cccccc;&quot;&gt;, &lt;/span&gt;&lt;span style=&quot;color: #9cdcfe;&quot;&gt;minPartitions&lt;/span&gt;&lt;span style=&quot;color: #d4d4d4;&quot;&gt;=&lt;/span&gt;&lt;span style=&quot;color: #b5cea8;&quot;&gt;3&lt;/span&gt;&lt;span style=&quot;color: #cccccc;&quot;&gt;)&lt;/span&gt;&lt;/div&gt;&lt;/div&gt;" id="nj91gokxBcbTwrOt-Kzk-80">
          <mxCell style="text;whiteSpace=wrap;html=1;" parent="1" vertex="1">
            <mxGeometry x="602" y="238.75" width="210" height="82.5" as="geometry" />
          </mxCell>
        </UserObject>
        <mxCell id="nj91gokxBcbTwrOt-Kzk-81" value="&lt;div style=&quot;color: rgb(204, 204, 204); background-color: rgb(31, 31, 31); font-family: Consolas, &amp;quot;Courier New&amp;quot;, monospace; font-weight: normal; line-height: 19px; white-space: pre; font-size: 13px;&quot;&gt;&lt;div&gt;&lt;span style=&quot;color: #6a9955;&quot;&gt;&lt;br&gt;&lt;/span&gt;&lt;/div&gt;&lt;div&gt;&lt;span style=&quot;color: #6a9955;&quot;&gt; # 分词                      &lt;/span&gt;&lt;/div&gt;&lt;div&gt;&lt;span style=&quot;color: #9cdcfe;&quot;&gt; rdd&lt;/span&gt;&lt;span style=&quot;color: #cccccc;&quot;&gt; &lt;/span&gt;&lt;span style=&quot;color: #d4d4d4;&quot;&gt;=&lt;/span&gt;&lt;span style=&quot;color: #cccccc;&quot;&gt; &lt;/span&gt;&lt;span style=&quot;color: #9cdcfe;&quot;&gt;rdd&lt;/span&gt;&lt;span style=&quot;color: #cccccc;&quot;&gt;.&lt;/span&gt;&lt;span style=&quot;color: #dcdcaa;&quot;&gt;flatMap&lt;/span&gt;&lt;span style=&quot;color: #cccccc;&quot;&gt;(&lt;/span&gt;&lt;span style=&quot;color: #dcdcaa;&quot;&gt;tokenize&lt;/span&gt;&lt;span style=&quot;color: #cccccc;&quot;&gt;)&lt;/span&gt;&lt;/div&gt;&lt;div&gt;&lt;span style=&quot;color: #cccccc;&quot;&gt;&lt;br&gt;&lt;/span&gt;&lt;/div&gt;&lt;/div&gt;" style="text;whiteSpace=wrap;html=1;" parent="1" vertex="1">
          <mxGeometry x="602" y="395" width="220" height="90" as="geometry" />
        </mxCell>
        <mxCell id="nj91gokxBcbTwrOt-Kzk-82" value="&lt;div style=&quot;color: rgb(204, 204, 204); background-color: rgb(31, 31, 31); font-family: Consolas, &amp;quot;Courier New&amp;quot;, monospace; font-weight: normal; line-height: 19px; white-space: pre; font-size: 13px;&quot;&gt;&lt;div&gt;&lt;span style=&quot;color: #6a9955;&quot;&gt; # 转换成 PairRDD            &lt;/span&gt;&lt;/div&gt;&lt;div&gt;&lt;span style=&quot;color: #9cdcfe;&quot;&gt; rdd&lt;/span&gt;&lt;span style=&quot;color: #cccccc;&quot;&gt; &lt;/span&gt;&lt;span style=&quot;color: #d4d4d4;&quot;&gt;=&lt;/span&gt;&lt;span style=&quot;color: #cccccc;&quot;&gt; &lt;/span&gt;&lt;span style=&quot;color: #9cdcfe;&quot;&gt;rdd&lt;/span&gt;&lt;span style=&quot;color: #cccccc;&quot;&gt;.&lt;/span&gt;&lt;span style=&quot;color: #dcdcaa;&quot;&gt;map&lt;/span&gt;&lt;span style=&quot;color: #cccccc;&quot;&gt;(&lt;/span&gt;&lt;/div&gt;&lt;div&gt;&lt;span style=&quot;color: #569cd6;&quot;&gt;     lambda&lt;/span&gt;&lt;span style=&quot;color: #cccccc;&quot;&gt; &lt;/span&gt;&lt;span style=&quot;color: #9cdcfe;&quot;&gt;word&lt;/span&gt;&lt;span style=&quot;color: #cccccc;&quot;&gt;: (&lt;/span&gt;&lt;span style=&quot;color: #9cdcfe;&quot;&gt;word&lt;/span&gt;&lt;span style=&quot;color: #cccccc;&quot;&gt;, &lt;/span&gt;&lt;span style=&quot;color: #b5cea8;&quot;&gt;1&lt;/span&gt;&lt;span style=&quot;color: #cccccc;&quot;&gt;)&lt;/span&gt;&lt;/div&gt;&lt;div&gt;&lt;span style=&quot;color: #cccccc;&quot;&gt; )&lt;/span&gt;&lt;/div&gt;&lt;/div&gt;" style="text;whiteSpace=wrap;html=1;" parent="1" vertex="1">
          <mxGeometry x="602" y="555" width="180" height="90" as="geometry" />
        </mxCell>
        <mxCell id="nj91gokxBcbTwrOt-Kzk-83" value="&lt;div style=&quot;color: rgb(204, 204, 204); background-color: rgb(31, 31, 31); font-family: Consolas, &amp;quot;Courier New&amp;quot;, monospace; font-weight: normal; line-height: 19px; white-space: pre; font-size: 13px;&quot;&gt;&lt;div&gt;&lt;span style=&quot;color: #6a9955;&quot;&gt;&lt;br&gt;&lt;/span&gt;&lt;/div&gt;&lt;div&gt;&lt;span style=&quot;color: #6a9955;&quot;&gt; # 词频统计                  &lt;/span&gt;&lt;/div&gt;&lt;div&gt;&lt;span style=&quot;color: #9cdcfe;&quot;&gt; rdd&lt;/span&gt;&lt;span style=&quot;color: #cccccc;&quot;&gt; &lt;/span&gt;&lt;span style=&quot;color: #d4d4d4;&quot;&gt;=&lt;/span&gt;&lt;span style=&quot;color: #cccccc;&quot;&gt; &lt;/span&gt;&lt;span style=&quot;color: #9cdcfe;&quot;&gt;rdd&lt;/span&gt;&lt;span style=&quot;color: #cccccc;&quot;&gt;.&lt;/span&gt;&lt;span style=&quot;color: #dcdcaa;&quot;&gt;reduceByKey&lt;/span&gt;&lt;span style=&quot;color: #cccccc;&quot;&gt;(&lt;/span&gt;&lt;span style=&quot;color: #dcdcaa;&quot;&gt;add&lt;/span&gt;&lt;span style=&quot;color: #cccccc;&quot;&gt;)&lt;/span&gt;&lt;/div&gt;&lt;div&gt;&lt;span style=&quot;color: #cccccc;&quot;&gt;&lt;br&gt;&lt;/span&gt;&lt;/div&gt;&lt;/div&gt;" style="text;whiteSpace=wrap;html=1;" parent="1" vertex="1">
          <mxGeometry x="602" y="713" width="200" height="90" as="geometry" />
        </mxCell>
        <mxCell id="nj91gokxBcbTwrOt-Kzk-84" value="&lt;div style=&quot;color: rgb(204, 204, 204); background-color: rgb(31, 31, 31); font-family: Consolas, &amp;quot;Courier New&amp;quot;, monospace; font-weight: normal; font-size: 13px; line-height: 19px; white-space: pre;&quot;&gt;&lt;div&gt;&lt;span style=&quot;color: rgb(106, 153, 85);&quot;&gt; # 执行 Job&lt;/span&gt;&lt;/div&gt;&lt;div&gt;&lt;span style=&quot;color: rgb(106, 153, 85);&quot;&gt; # 转换成 Driver 集合  &lt;/span&gt;&lt;span style=&quot;color: rgb(106, 153, 85);&quot;&gt;      &lt;/span&gt;&lt;br&gt;&lt;/div&gt;&lt;div&gt;&lt;span style=&quot;color: #4ec9b0;&quot;&gt; dict&lt;/span&gt;&lt;span style=&quot;color: #cccccc;&quot;&gt;(&lt;/span&gt;&lt;span style=&quot;color: #9cdcfe;&quot;&gt;rdd&lt;/span&gt;&lt;span style=&quot;color: #cccccc;&quot;&gt;.&lt;/span&gt;&lt;span style=&quot;color: #dcdcaa;&quot;&gt;collect&lt;/span&gt;&lt;span style=&quot;color: #cccccc;&quot;&gt;())&lt;/span&gt;&lt;/div&gt;&lt;div&gt;&lt;span style=&quot;color: #cccccc;&quot;&gt; &lt;/span&gt;&lt;/div&gt;&lt;/div&gt;" style="text;whiteSpace=wrap;html=1;" parent="1" vertex="1">
          <mxGeometry x="602" y="875" width="218" height="89" as="geometry" />
        </mxCell>
        <mxCell id="nj91gokxBcbTwrOt-Kzk-90" value="" style="shape=curlyBracket;whiteSpace=wrap;html=1;rounded=1;labelPosition=left;verticalLabelPosition=middle;align=right;verticalAlign=middle;" parent="1" vertex="1">
          <mxGeometry x="49" y="20" width="20" height="650" as="geometry" />
        </mxCell>
        <mxCell id="nj91gokxBcbTwrOt-Kzk-91" value="" style="shape=curlyBracket;whiteSpace=wrap;html=1;rounded=1;labelPosition=left;verticalLabelPosition=middle;align=right;verticalAlign=middle;" parent="1" vertex="1">
          <mxGeometry x="48" y="690" width="20" height="280" as="geometry" />
        </mxCell>
        <mxCell id="nj91gokxBcbTwrOt-Kzk-92" value="&lt;font color=&quot;#ff0000&quot; style=&quot;font-size: 13px;&quot;&gt;&lt;b&gt;Stage 1&lt;/b&gt;&lt;/font&gt;" style="text;html=1;align=left;verticalAlign=middle;resizable=0;points=[];autosize=1;strokeColor=none;fillColor=none;textShadow=1;" parent="1" vertex="1">
          <mxGeometry y="330" width="70" height="30" as="geometry" />
        </mxCell>
        <mxCell id="nj91gokxBcbTwrOt-Kzk-93" value="&lt;font style=&quot;font-size: 13px;&quot; color=&quot;#ff0000&quot;&gt;Stage 2&lt;/font&gt;" style="text;html=1;align=left;verticalAlign=middle;resizable=0;points=[];autosize=1;strokeColor=none;fillColor=none;textShadow=1;fontStyle=1" parent="1" vertex="1">
          <mxGeometry y="815" width="70" height="30" as="geometry" />
        </mxCell>
        <mxCell id="SwacTGYDfWWPdm--fIbU-6" value="RDD1" style="text;html=1;align=center;verticalAlign=middle;whiteSpace=wrap;rounded=0;" vertex="1" parent="1">
          <mxGeometry x="70" y="265" width="50" height="30" as="geometry" />
        </mxCell>
        <mxCell id="SwacTGYDfWWPdm--fIbU-7" value="RDD2" style="text;html=1;align=center;verticalAlign=middle;whiteSpace=wrap;rounded=0;" vertex="1" parent="1">
          <mxGeometry x="70" y="424" width="50" height="30" as="geometry" />
        </mxCell>
        <mxCell id="SwacTGYDfWWPdm--fIbU-8" value="RDD3" style="text;html=1;align=center;verticalAlign=middle;whiteSpace=wrap;rounded=0;" vertex="1" parent="1">
          <mxGeometry x="69" y="586" width="50" height="30" as="geometry" />
        </mxCell>
        <mxCell id="SwacTGYDfWWPdm--fIbU-9" value="RDD4" style="text;html=1;align=center;verticalAlign=middle;whiteSpace=wrap;rounded=0;" vertex="1" parent="1">
          <mxGeometry x="69" y="746" width="50" height="30" as="geometry" />
        </mxCell>
        <mxCell id="SwacTGYDfWWPdm--fIbU-14" value="&lt;font color=&quot;#ff0000&quot; style=&quot;font-size: 13px;&quot;&gt;Task 1&lt;/font&gt;" style="text;html=1;align=center;verticalAlign=middle;whiteSpace=wrap;rounded=0;textShadow=1;fontStyle=1;fontSize=13;" vertex="1" parent="1">
          <mxGeometry x="119" y="180" width="60" height="30" as="geometry" />
        </mxCell>
        <mxCell id="SwacTGYDfWWPdm--fIbU-15" value="Task 2" style="text;html=1;align=center;verticalAlign=middle;whiteSpace=wrap;rounded=0;textShadow=1;fontColor=#FF0000;fontStyle=1;fontSize=13;" vertex="1" parent="1">
          <mxGeometry x="277.5" y="180" width="60" height="30" as="geometry" />
        </mxCell>
        <mxCell id="SwacTGYDfWWPdm--fIbU-16" value="Task 3" style="text;html=1;align=center;verticalAlign=middle;whiteSpace=wrap;rounded=0;textShadow=1;fontColor=#FF0000;fontStyle=1;fontSize=13;" vertex="1" parent="1">
          <mxGeometry x="439" y="180" width="60" height="30" as="geometry" />
        </mxCell>
        <mxCell id="SwacTGYDfWWPdm--fIbU-21" value="&lt;font color=&quot;#ff0000&quot; style=&quot;font-size: 13px;&quot;&gt;Task 4&lt;/font&gt;" style="text;html=1;align=center;verticalAlign=middle;whiteSpace=wrap;rounded=0;textShadow=1;fontStyle=1;fontSize=13;" vertex="1" parent="1">
          <mxGeometry x="119" y="830" width="60" height="30" as="geometry" />
        </mxCell>
        <mxCell id="SwacTGYDfWWPdm--fIbU-22" value="&lt;font color=&quot;#ff0000&quot; style=&quot;font-size: 13px;&quot;&gt;Task 5&lt;/font&gt;" style="text;html=1;align=center;verticalAlign=middle;whiteSpace=wrap;rounded=0;textShadow=1;fontStyle=1;fontSize=13;" vertex="1" parent="1">
          <mxGeometry x="277.5" y="830" width="60" height="30" as="geometry" />
        </mxCell>
        <mxCell id="SwacTGYDfWWPdm--fIbU-23" value="&lt;font color=&quot;#ff0000&quot; style=&quot;font-size: 13px;&quot;&gt;Task 6&lt;/font&gt;" style="text;html=1;align=center;verticalAlign=middle;whiteSpace=wrap;rounded=0;textShadow=1;fontStyle=1;fontSize=13;" vertex="1" parent="1">
          <mxGeometry x="439" y="830" width="60" height="30" as="geometry" />
        </mxCell>
        <UserObject label="&lt;div style=&quot;color: rgb(204, 204, 204); background-color: rgb(31, 31, 31); font-family: Consolas, &amp;quot;Courier New&amp;quot;, monospace; font-weight: normal; line-height: 19px; white-space: pre; font-size: 13px;&quot;&gt;&lt;div&gt;&lt;span style=&quot;color: #6a9955;&quot;&gt; &lt;/span&gt;&lt;/div&gt;&lt;div&gt;&lt;span style=&quot;color: #6a9955;&quot;&gt; # 输入文件                   &lt;/span&gt;&lt;/div&gt;&lt;div&gt;&lt;span style=&quot;color: #6a9955;&quot;&gt; # wc_test.txt&lt;/span&gt;&lt;/div&gt;&lt;div&gt;&lt;span style=&quot;color: #6a9955;&quot;&gt;       &lt;/span&gt;&lt;/div&gt;&lt;/div&gt;" link="&lt;div style=&quot;color: #cccccc;background-color: #1f1f1f;font-family: Consolas, &#39;Courier New&#39;, monospace;font-weight: normal;font-size: 14px;line-height: 19px;white-space: pre;&quot;&gt;&lt;div&gt;&lt;span style=&quot;color: #6a9955;&quot;&gt;# 读取文件数据, 创建 RDD 对象&lt;/span&gt;&lt;/div&gt;&lt;div&gt;&lt;span style=&quot;color: #9cdcfe;&quot;&gt;rdd&lt;/span&gt;&lt;span style=&quot;color: #cccccc;&quot;&gt; &lt;/span&gt;&lt;span style=&quot;color: #d4d4d4;&quot;&gt;=&lt;/span&gt;&lt;span style=&quot;color: #cccccc;&quot;&gt; &lt;/span&gt;&lt;span style=&quot;color: #9cdcfe;&quot;&gt;sc&lt;/span&gt;&lt;span style=&quot;color: #cccccc;&quot;&gt;.&lt;/span&gt;&lt;span style=&quot;color: #dcdcaa;&quot;&gt;textFile&lt;/span&gt;&lt;span style=&quot;color: #cccccc;&quot;&gt;(&lt;/span&gt;&lt;span style=&quot;color: #ce9178;&quot;&gt;&quot;./inputs/wc_test.txt&quot;&lt;/span&gt;&lt;span style=&quot;color: #cccccc;&quot;&gt;, &lt;/span&gt;&lt;span style=&quot;color: #9cdcfe;&quot;&gt;minPartitions&lt;/span&gt;&lt;span style=&quot;color: #d4d4d4;&quot;&gt;=&lt;/span&gt;&lt;span style=&quot;color: #b5cea8;&quot;&gt;3&lt;/span&gt;&lt;span style=&quot;color: #cccccc;&quot;&gt;)&lt;/span&gt;&lt;/div&gt;&lt;/div&gt;" id="0pLwPKsOiVlVZEtvQGLx-1">
          <mxCell style="text;whiteSpace=wrap;html=1;" vertex="1" parent="1">
            <mxGeometry x="597" y="38.75" width="210" height="82.5" as="geometry" />
          </mxCell>
        </UserObject>
      </root>
    </mxGraphModel>
  </diagram>
  <diagram id="KkXUb5Rqm3_2Du7Y0teu" name="WordCount实际DAG">
    <mxGraphModel dx="1434" dy="844" grid="1" gridSize="10" guides="1" tooltips="1" connect="1" arrows="1" fold="1" page="1" pageScale="1" pageWidth="827" pageHeight="1169" math="0" shadow="0">
      <root>
        <mxCell id="0" />
        <mxCell id="1" parent="0" />
        <mxCell id="2-JEZSQ5Suq72KDv7jqR-13" value="" style="rounded=0;whiteSpace=wrap;html=1;fillColor=#ffe6cc;strokeColor=#d79b00;" vertex="1" parent="1">
          <mxGeometry x="260" y="160" width="160" height="280" as="geometry" />
        </mxCell>
        <mxCell id="2-JEZSQ5Suq72KDv7jqR-12" value="" style="rounded=0;whiteSpace=wrap;html=1;fillColor=#ffe6cc;strokeColor=#d79b00;" vertex="1" parent="1">
          <mxGeometry x="60" y="160" width="160" height="280" as="geometry" />
        </mxCell>
        <mxCell id="2-JEZSQ5Suq72KDv7jqR-7" style="edgeStyle=orthogonalEdgeStyle;rounded=0;orthogonalLoop=1;jettySize=auto;html=1;exitX=0.5;exitY=1;exitDx=0;exitDy=0;entryX=0.5;entryY=0;entryDx=0;entryDy=0;" edge="1" parent="1" source="2-JEZSQ5Suq72KDv7jqR-1" target="2-JEZSQ5Suq72KDv7jqR-2">
          <mxGeometry relative="1" as="geometry" />
        </mxCell>
        <mxCell id="2-JEZSQ5Suq72KDv7jqR-1" value="textFile" style="rounded=1;whiteSpace=wrap;html=1;fillColor=#dae8fc;strokeColor=#6c8ebf;" vertex="1" parent="1">
          <mxGeometry x="80" y="200" width="120" height="40" as="geometry" />
        </mxCell>
        <mxCell id="2-JEZSQ5Suq72KDv7jqR-8" style="edgeStyle=orthogonalEdgeStyle;rounded=0;orthogonalLoop=1;jettySize=auto;html=1;exitX=0.5;exitY=1;exitDx=0;exitDy=0;entryX=0.5;entryY=0;entryDx=0;entryDy=0;" edge="1" parent="1" source="2-JEZSQ5Suq72KDv7jqR-2" target="2-JEZSQ5Suq72KDv7jqR-3">
          <mxGeometry relative="1" as="geometry" />
        </mxCell>
        <mxCell id="2-JEZSQ5Suq72KDv7jqR-2" value="PythonRDD" style="rounded=1;whiteSpace=wrap;html=1;fillColor=#f8cecc;strokeColor=#b85450;" vertex="1" parent="1">
          <mxGeometry x="80" y="280" width="120" height="40" as="geometry" />
        </mxCell>
        <mxCell id="2-JEZSQ5Suq72KDv7jqR-9" style="edgeStyle=orthogonalEdgeStyle;rounded=0;orthogonalLoop=1;jettySize=auto;html=1;exitX=0.5;exitY=1;exitDx=0;exitDy=0;entryX=0.5;entryY=0;entryDx=0;entryDy=0;" edge="1" parent="1" source="2-JEZSQ5Suq72KDv7jqR-3" target="2-JEZSQ5Suq72KDv7jqR-4">
          <mxGeometry relative="1" as="geometry">
            <Array as="points">
              <mxPoint x="140" y="460" />
              <mxPoint x="240" y="460" />
              <mxPoint x="240" y="140" />
              <mxPoint x="340" y="140" />
            </Array>
          </mxGeometry>
        </mxCell>
        <mxCell id="2-JEZSQ5Suq72KDv7jqR-3" value="PairwiseRDD" style="rounded=1;whiteSpace=wrap;html=1;fillColor=#dae8fc;strokeColor=#6c8ebf;" vertex="1" parent="1">
          <mxGeometry x="80" y="360" width="120" height="40" as="geometry" />
        </mxCell>
        <mxCell id="2-JEZSQ5Suq72KDv7jqR-10" style="edgeStyle=orthogonalEdgeStyle;rounded=0;orthogonalLoop=1;jettySize=auto;html=1;exitX=0.5;exitY=1;exitDx=0;exitDy=0;entryX=0.5;entryY=0;entryDx=0;entryDy=0;" edge="1" parent="1" source="2-JEZSQ5Suq72KDv7jqR-4" target="2-JEZSQ5Suq72KDv7jqR-5">
          <mxGeometry relative="1" as="geometry" />
        </mxCell>
        <mxCell id="2-JEZSQ5Suq72KDv7jqR-4" value="ShuffledRDD" style="rounded=1;whiteSpace=wrap;html=1;fillColor=#dae8fc;strokeColor=#6c8ebf;" vertex="1" parent="1">
          <mxGeometry x="280" y="200" width="120" height="40" as="geometry" />
        </mxCell>
        <mxCell id="2-JEZSQ5Suq72KDv7jqR-11" style="edgeStyle=orthogonalEdgeStyle;rounded=0;orthogonalLoop=1;jettySize=auto;html=1;exitX=0.5;exitY=1;exitDx=0;exitDy=0;" edge="1" parent="1" source="2-JEZSQ5Suq72KDv7jqR-5" target="2-JEZSQ5Suq72KDv7jqR-6">
          <mxGeometry relative="1" as="geometry" />
        </mxCell>
        <mxCell id="2-JEZSQ5Suq72KDv7jqR-5" value="MapPartitionsRDD" style="rounded=1;whiteSpace=wrap;html=1;fillColor=#dae8fc;strokeColor=#6c8ebf;" vertex="1" parent="1">
          <mxGeometry x="280" y="280" width="120" height="40" as="geometry" />
        </mxCell>
        <mxCell id="2-JEZSQ5Suq72KDv7jqR-6" value="PythonRDD" style="rounded=1;whiteSpace=wrap;html=1;fillColor=#f8cecc;strokeColor=#b85450;" vertex="1" parent="1">
          <mxGeometry x="280" y="360" width="120" height="40" as="geometry" />
        </mxCell>
        <mxCell id="2-JEZSQ5Suq72KDv7jqR-14" value="stage 0" style="text;html=1;align=center;verticalAlign=middle;whiteSpace=wrap;rounded=0;" vertex="1" parent="1">
          <mxGeometry x="160" y="160" width="60" height="30" as="geometry" />
        </mxCell>
        <mxCell id="2-JEZSQ5Suq72KDv7jqR-15" value="stage 1" style="text;html=1;align=center;verticalAlign=middle;whiteSpace=wrap;rounded=0;" vertex="1" parent="1">
          <mxGeometry x="360" y="160" width="60" height="30" as="geometry" />
        </mxCell>
      </root>
    </mxGraphModel>
  </diagram>
  <diagram id="A701jz9TYlNt9n8BOwXV" name="coalesce-wo-shuffle">
    <mxGraphModel dx="1434" dy="844" grid="1" gridSize="10" guides="1" tooltips="1" connect="1" arrows="1" fold="1" page="1" pageScale="1" pageWidth="827" pageHeight="1169" math="0" shadow="0">
      <root>
        <mxCell id="0" />
        <mxCell id="1" parent="0" />
        <mxCell id="VgnlfH2smBi934GS8oEa-10" value="" style="rounded=0;whiteSpace=wrap;html=1;fillColor=#fff2cc;strokeColor=#d6b656;" vertex="1" parent="1">
          <mxGeometry x="300" y="40" width="100" height="340" as="geometry" />
        </mxCell>
        <mxCell id="VgnlfH2smBi934GS8oEa-8" value="" style="rounded=0;whiteSpace=wrap;html=1;fillColor=#fff2cc;strokeColor=#d6b656;" vertex="1" parent="1">
          <mxGeometry x="100" y="40" width="100" height="340" as="geometry" />
        </mxCell>
        <mxCell id="VgnlfH2smBi934GS8oEa-21" value="" style="rounded=1;whiteSpace=wrap;html=1;dashed=1;opacity=70;fillColor=#e1d5e7;strokeColor=#9673a6;" vertex="1" parent="1">
          <mxGeometry x="80" y="230" width="400" height="140" as="geometry" />
        </mxCell>
        <mxCell id="VgnlfH2smBi934GS8oEa-20" value="" style="rounded=1;whiteSpace=wrap;html=1;opacity=70;dashed=1;fillColor=#e1d5e7;strokeColor=#9673a6;" vertex="1" parent="1">
          <mxGeometry x="80" y="70" width="400" height="140" as="geometry" />
        </mxCell>
        <mxCell id="VgnlfH2smBi934GS8oEa-16" style="rounded=0;orthogonalLoop=1;jettySize=auto;html=1;exitX=1;exitY=0.5;exitDx=0;exitDy=0;entryX=0;entryY=0.5;entryDx=0;entryDy=0;" edge="1" parent="1" source="VgnlfH2smBi934GS8oEa-1" target="VgnlfH2smBi934GS8oEa-11">
          <mxGeometry relative="1" as="geometry" />
        </mxCell>
        <mxCell id="VgnlfH2smBi934GS8oEa-1" value="分区1" style="rounded=0;whiteSpace=wrap;html=1;fillColor=#d5e8d4;strokeColor=#82b366;" vertex="1" parent="1">
          <mxGeometry x="120" y="80" width="60" height="40" as="geometry" />
        </mxCell>
        <mxCell id="VgnlfH2smBi934GS8oEa-17" style="rounded=0;orthogonalLoop=1;jettySize=auto;html=1;exitX=1;exitY=0.5;exitDx=0;exitDy=0;entryX=0;entryY=0.5;entryDx=0;entryDy=0;" edge="1" parent="1" source="VgnlfH2smBi934GS8oEa-2" target="VgnlfH2smBi934GS8oEa-11">
          <mxGeometry relative="1" as="geometry" />
        </mxCell>
        <mxCell id="VgnlfH2smBi934GS8oEa-2" value="分区2" style="rounded=0;whiteSpace=wrap;html=1;fillColor=#d5e8d4;strokeColor=#82b366;" vertex="1" parent="1">
          <mxGeometry x="120" y="160" width="60" height="40" as="geometry" />
        </mxCell>
        <mxCell id="VgnlfH2smBi934GS8oEa-18" style="rounded=0;orthogonalLoop=1;jettySize=auto;html=1;exitX=1;exitY=0.5;exitDx=0;exitDy=0;entryX=0;entryY=0.5;entryDx=0;entryDy=0;" edge="1" parent="1" source="VgnlfH2smBi934GS8oEa-3" target="VgnlfH2smBi934GS8oEa-12">
          <mxGeometry relative="1" as="geometry" />
        </mxCell>
        <mxCell id="VgnlfH2smBi934GS8oEa-3" value="分区3" style="rounded=0;whiteSpace=wrap;html=1;fillColor=#d5e8d4;strokeColor=#82b366;" vertex="1" parent="1">
          <mxGeometry x="120" y="240" width="60" height="40" as="geometry" />
        </mxCell>
        <mxCell id="VgnlfH2smBi934GS8oEa-19" style="rounded=0;orthogonalLoop=1;jettySize=auto;html=1;exitX=1;exitY=0.5;exitDx=0;exitDy=0;entryX=0;entryY=0.5;entryDx=0;entryDy=0;" edge="1" parent="1" source="VgnlfH2smBi934GS8oEa-4" target="VgnlfH2smBi934GS8oEa-12">
          <mxGeometry relative="1" as="geometry" />
        </mxCell>
        <mxCell id="VgnlfH2smBi934GS8oEa-4" value="分区4" style="rounded=0;whiteSpace=wrap;html=1;fillColor=#d5e8d4;strokeColor=#82b366;" vertex="1" parent="1">
          <mxGeometry x="120" y="320" width="60" height="40" as="geometry" />
        </mxCell>
        <mxCell id="VgnlfH2smBi934GS8oEa-9" value="父RDD" style="text;html=1;align=center;verticalAlign=middle;whiteSpace=wrap;rounded=0;" vertex="1" parent="1">
          <mxGeometry x="120" y="40" width="60" height="30" as="geometry" />
        </mxCell>
        <mxCell id="VgnlfH2smBi934GS8oEa-11" value="分区1" style="rounded=0;whiteSpace=wrap;html=1;fillColor=#d5e8d4;strokeColor=#82b366;" vertex="1" parent="1">
          <mxGeometry x="320" y="120" width="60" height="40" as="geometry" />
        </mxCell>
        <mxCell id="VgnlfH2smBi934GS8oEa-12" value="分区2" style="rounded=0;whiteSpace=wrap;html=1;fillColor=#d5e8d4;strokeColor=#82b366;" vertex="1" parent="1">
          <mxGeometry x="320" y="280" width="60" height="40" as="geometry" />
        </mxCell>
        <mxCell id="VgnlfH2smBi934GS8oEa-15" value="子RDD" style="text;html=1;align=center;verticalAlign=middle;whiteSpace=wrap;rounded=0;" vertex="1" parent="1">
          <mxGeometry x="320" y="40" width="60" height="30" as="geometry" />
        </mxCell>
        <mxCell id="VgnlfH2smBi934GS8oEa-22" value="Task1" style="text;html=1;align=center;verticalAlign=middle;whiteSpace=wrap;rounded=0;" vertex="1" parent="1">
          <mxGeometry x="414" y="125" width="60" height="30" as="geometry" />
        </mxCell>
        <mxCell id="VgnlfH2smBi934GS8oEa-23" value="Task2" style="text;html=1;align=center;verticalAlign=middle;whiteSpace=wrap;rounded=0;" vertex="1" parent="1">
          <mxGeometry x="414" y="285" width="60" height="30" as="geometry" />
        </mxCell>
      </root>
    </mxGraphModel>
  </diagram>
</mxfile>
